inDegrees=yes
name=ik_appendData_wink_l
DataType=double
version=3
OpenSimVersion=4.5
endheader
time	pelvis_tilt	pelvis_list	pelvis_rotation	pelvis_tx	pelvis_ty	pelvis_tz	hip_flexion_r	hip_adduction_r	hip_rotation_r	knee_angle_r	knee_angle_r_beta	ankle_angle_r	subtalar_angle_r	mtp_angle_r	hip_flexion_l	hip_adduction_l	hip_rotation_l	knee_angle_l	knee_angle_l_beta	ankle_angle_l	subtalar_angle_l	mtp_angle_l	lumbar_extension	lumbar_bending	lumbar_rotation	arm_flex_r	arm_add_r	arm_rot_r	elbow_flex_r	pro_sup_r	wrist_flex_r	wrist_dev_r	arm_flex_l	arm_add_l	arm_rot_l	elbow_flex_l	pro_sup_l	wrist_flex_l	wrist_dev_l
0	-0.1962012121660576	89.6541338020734	0.1963074290000841	0	0.9399999999999999	0	44.52190839182374	-10.083837352918	0	59.93843514682796	1.046123041805239	-5.013226886363186	0	0	44.52190839182374	-10.083837352918	0	59.93843514682796	1.046123041805239	-5.013226886363186	0	0	-0.001475532521616993	0.344924392803351	-0.0001710418643691104	0	-12.10964338319726	0	76.36938723878708	44.88914410105016	0	0	-0.2373999232709138	-0.05536100076540454	-0.005549577014809135	0.4873563733193066	44.88914410105016	0	0
1	-0.1945118046580288	89.65489102867713	0.1943253661043045	0	0.9399999999999999	0	44.52205815999122	-10.08374575626675	0	59.9384503405992	1.046123306986573	-5.013208041951569	0	0	44.52205815999122	-10.08374575626675	0	59.9384503405992	1.046123306986573	-5.013208041951569	0	0	0.00192649400324227	0.3460619823500921	-0.001051674420254418	0	-12.11010772682202	0	76.36895819441872	44.8892399362061	0	0	0.8228421417545507	-0.4098397790317326	0.01395096979134553	0.611620544170526	44.8892399362061	0	0
2	-0.1882395240219724	89.65473928426908	0.1923857248566772	0	0.9399999999999999	0	44.52411312511218	-10.08290205409831	0	59.93871324064703	1.046127895458011	-5.01305048427904	0	0	44.52411312511218	-10.08290205409831	0	59.93871324064703	1.046127895458011	-5.01305048427904	0	0	-0.002453857720467189	0.3470088627241502	-0.0095839534169554	0	-12.11769525290915	0	76.36307224057754	44.89019792783944	0	0	1.985728905884541	-1.842416942371893	0.7781293405278276	1.095462635571545	44.89019792783944	0	0
3	-0.1874608099186054	89.6548171162685	0.1885775245178143	0	0.9399999999999999	0	44.524238404846	-10.08282602019015	0	59.93872596266361	1.046128117499088	-5.013034879258797	0	0	44.524238404846	-10.08282602019015	0	59.93872596266361	1.046128117499088	-5.013034879258797	0	0	-0.009376653441570019	0.3492765701655753	-0.006490831977868946	0	-12.11808462513262	0	76.36271335015863	44.89027762778061	0	0	3.065577698899058	-2.324072311513817	0.8540635557718496	0.3773813959462062	44.89027762778061	0	0
4	-0.1865681803580337	89.65402659821071	0.1877882333340695	0	0.9399999999999999	0	44.5243926835788	-10.08273230958102	0	59.93874161329568	1.046128390654147	-5.013015645740349	0	0	44.5243926835788	-10.08273230958102	0	59.93874161329568	1.046128390654147	-5.013015645740349	0	0	-0.001520589276234404	0.3464164064378988	-0.004421205434740153	0	-12.11856381682533	0	76.36227138575195	44.89037584854664	0	0	4.287058022499402	-2.499183507804159	1.451411140071504	0.3637307265431661	44.89037584854664	0	0
5	0.4589495072507826	89.6598498586164	-0.4535491362499143	0	0.9399999999999999	0	44.53305811736188	-10.07778853732786	0	59.93963663486553	1.046144011727418	-5.012037356465105	0	0	44.53305811736188	-10.07778853732786	0	59.93963663486553	1.046144011727418	-5.012037356465105	0	0	0.004312701563024265	0.329733610642427	-0.01375923018707397	0	-12.14543889031246	0	76.33744791410221	44.89568070828184	0	0	5.143684337277739	-3.537105942891633	1.631925884602129	0.1832094478235289	44.89568070828184	0	0
6	0.2361240389972181	89.65641717431255	-0.2473231082570623	0	0.9399999999999999	0	44.54263585645615	-10.07264253296138	0	59.94062131543161	1.046161197645376	-5.011033915480301	0	0	44.54263585645615	-10.07264253296138	0	59.94062131543161	1.046161197645376	-5.011033915480301	0	0	-0.007398229192521857	0.3399892564984915	0.008550911372840237	0	-12.17584323412604	0	76.31001164744795	44.90127204339282	0	0	6.042791432076726	-4.493210124448145	2.371879403969906	0.1263042733440671	44.90127204339282	0	0
7	0.2390530163772067	89.65486153810821	-0.2312175926056399	0	0.9399999999999999	0	44.54276092607847	-10.07257417614684	0	59.94063424765537	1.04616142335526	-5.01102041054721	0	0	44.54276092607847	-10.07257417614684	0	59.94063424765537	1.04616142335526	-5.01102041054721	0	0	-1.138690489912584	0.4151202281084824	0.02644395446191462	0	-12.17624234563573	0	76.30965337235146	44.90134572820006	0	0	7.773851555893117	-4.288786172000085	2.313061154438767	0.2279719303893581	44.90134572820006	0	0
8	0.23493651239637	89.64462908736294	-0.2352801481646543	0	0.9399999999999999	0	44.5428197604817	-10.07254146266119	0	59.94064024237529	1.046161527982861	-5.011013927952939	0	0	44.5428197604817	-10.07254146266119	0	59.94064024237529	1.046161527982861	-5.011013927952939	0	0	-1.122895798900727	0.4442431632328779	0.03646172031591079	0	-12.17642814976339	0	76.30948483366659	44.90138089021648	0	0	7.757783001184079	-4.267331459053107	2.312735142443286	0.2314236058876594	44.90138089021648	0	0
9	0.2416159311281801	89.65188108561512	-0.2454745905994314	0	0.9399999999999999	0	44.54294163890851	-10.0724742728375	0	59.9406527486986	1.04616174625938	-5.011000634809212	0	0	44.54294163890851	-10.0724742728375	0	59.9406527486986	1.04616174625938	-5.011000634809212	0	0	0.002023823287564226	0.3556202202111715	0.007024309631152132	0	-12.17681501113661	0	76.30913569868694	44.90145321598358	0	0	7.236436758073632	-4.30836616880462	2.244190364354205	0.1183784050923508	44.90145321598358	0	0
10	0.2544821014404948	89.65042709825829	-0.2319386031171853	0	0.9399999999999999	0	44.5429998848803	-10.07244190293742	0	59.94065868320487	1.046161849836054	-5.010994221923713	0	0	44.5429998848803	-10.07244190293742	0	59.94065868320487	1.046161849836054	-5.010994221923713	0	0	-0.0007244152202497736	0.3786882102706999	-0.02809570518447796	0	-12.17699897360635	0	76.30896884567319	44.90148801435137	0	0	7.226136895625574	-4.228921208797384	2.411261645362745	0.1195321816364378	44.90148801435137	0	0
11	0.2461411734628901	89.64424618469658	-0.2403010723361072	0	0.9399999999999999	0	44.54306847262608	-10.07240379138661	0	59.9406656691576	1.04616197176393	-5.010986672794596	0	0	44.54306847262608	-10.07240379138661	0	59.9406656691576	1.04616197176393	-5.010986672794596	0	0	0.008946122772535517	0.3804489677054675	-0.005666353832020635	0	-12.1772155608873	0	76.3087723673175	44.90152898914047	0	0	7.211219485549112	-4.229314979368199	2.408768970067288	0.1195570370680353	44.90152898914047	0	0
12	0.2364518788576245	89.65933385160258	-0.2480191193959208	0	0.9399999999999999	0	44.54315358774017	-10.07235672201842	0	59.9406743735621	1.046162123684448	-5.010977357482714	0	0	44.54315358774017	-10.07235672201842	0	59.9406743735621	1.046162123684448	-5.010977357482714	0	0	-0.00175771843874419	0.349460315354893	0.03564575398970589	0	-12.1774851219503	0	76.30852854475894	44.90157963592006	0	0	6.950844494248451	-3.902128197772803	1.823344496880808	0.1300628384509342	44.90157963592006	0	0
13	0.2382341760302188	89.64654510748824	-0.2462960480996234	0	0.9399999999999999	0	44.54320359044245	-10.0723290019079	0	59.9406794722897	1.046162212674032	-5.010971870446514	0	0	44.54320359044245	-10.0723290019079	0	59.9406794722897	1.046162212674032	-5.010971870446514	0	0	0.01591628055284225	0.3949372355653625	0.0132709585227827	0	-12.17764316644898	0	76.30838530575816	44.90160945438027	0	0	6.919845048041582	-3.862140698893917	1.796470785589685	0.1319975583853681	44.90160945438027	0	0
14	0.2436117128399115	89.64476965739981	-0.2407429146195852	0	0.9399999999999999	0	44.54327881740119	-10.07228722926949	0	59.94068713268179	1.046162346373096	-5.010963599295951	0	0	44.54327881740119	-10.07228722926949	0	59.94068713268179	1.046162346373096	-5.010963599295951	0	0	0.008835916267364682	0.3755811718888884	0.002610470008703877	0	-12.17788071475273	0	76.30816980856532	44.90165437626955	0	0	6.926902888081461	-3.882369546248472	1.790860320269821	0.1302682587270543	44.90165437626955	0	0
15	0.2439367216192573	89.65198710533271	-0.2423074537954912	0	0.9399999999999999	0	44.54336602468627	-10.07223895382613	0	59.94069603347738	1.046162501721285	-5.010954046915674	0	0	44.54336602468627	-10.07223895382613	0	59.94069603347738	1.046162501721285	-5.010954046915674	0	0	0.01466882812267471	0.3532205118374306	-0.005204639577313287	0	-12.17815656068158	0	76.30791999254707	44.90170632120444	0	0	7.385786576558488	-3.740393813043239	1.741714699228595	0.2761537039301646	44.90170632120444	0	0
16	0.2348443215883884	89.6506372718576	-0.2369693209622183	0	0.9399999999999999	0	44.54711272975504	-10.07082900560793	0	59.94117882245409	1.046170927978521	-5.010699437567817	0	0	44.54711272975504	-10.07082900560793	0	59.94117882245409	1.046170927978521	-5.010699437567817	0	0	-0.004597002032848475	0.3559867661401131	0.005321858551692155	0	-12.19224869924777	0	76.29718866018574	44.90334653910821	0	0	7.374561985162749	-1.89198171813152	1.334326637103816	2.59079334478445	44.90334653910821	0	0
17	0.2340004155171878	89.6541268995657	-0.2320036980596228	0	0.9399999999999999	0	44.55762145491316	-10.06705588293237	0	59.94254715894661	1.046194809955591	-5.010028795130367	0	0	44.55762145491316	-10.06705588293237	0	59.94254715894661	1.046194809955591	-5.010028795130367	0	0	0.0008635132172633446	0.3494232146538734	-0.003793765418884091	0	-12.23230126808351	0	76.26708987604442	44.90778848808647	0	0	7.946353886592682	0.7619155064661188	0.1472636530003985	9.890533461091715	44.90778848808647	0	0
